<?xml version="1.0" encoding="UTF-8"?>
<svg width="102px" height="32px" viewBox="0 0 102 32" version="1.1" xmlns="http://www.w3.org/2000/svg" xmlns:xlink="http://www.w3.org/1999/xlink">
    <title>编组 3@2x</title>
    <defs>
        <polygon id="path-1" points="0 0 31.9230668 0 31.9230668 31.9231625 0 31.9231625"></polygon>
        <polygon id="path-3" points="0 0 21.5643823 0 21.5643823 18.6211829 0 18.6211829"></polygon>
        <polygon id="path-5" points="0 32 101.756594 32 101.756594 0 0 0"></polygon>
    </defs>
    <g id="TPM平台" stroke="none" stroke-width="1" fill="none" fill-rule="evenodd">
        <g id="菜单选中" transform="translate(-24.000000, -14.000000)">
            <g id="编组" transform="translate(24.000000, 14.000000)">
                <g transform="translate(0.000000, 0.076838)">
                    <mask id="mask-2" fill="white">
                        <use xlink:href="#path-1"></use>
                    </mask>
                    <g id="Clip-2"></g>
                    <path d="M10.9836493,2.81897016 C5.6949704,4.8360744 1.90572334,9.97547994 1.90572334,15.9617248 C1.90572334,17.7826685 2.24828659,19.5395012 2.89035345,21.1441899 C5.18112553,19.4313737 8.3933736,15.7875725 10.2774714,12.491119 L10.2774714,12.5131272 C10.5128641,12.0796603 10.7693081,11.6241852 10.9836493,11.16871 C11.7969978,9.62908917 12.5041325,7.98038395 13.1031398,6.33263561 C13.4036003,5.46474493 13.6389929,4.61886251 13.8523773,3.77298008 C14.0026075,3.18736918 14.1308295,2.60175827 14.2380001,2.01614736 C14.1097781,2.03815561 13.9815561,2.06016387 13.8523773,2.08121524 C13.6179415,2.10322349 13.3605406,2.16829137 13.1031398,2.211351 C12.3749537,2.36349501 11.6687758,2.57975001 10.9836493,2.81897016 L10.9836493,2.81897016 Z M20.9179834,29.1035225 C21.6251181,28.843251 22.3102446,28.5179116 22.9523115,28.1275043 C22.3102446,27.2175109 21.5820585,25.959213 20.9179834,24.6798636 C20.3610789,23.5947611 19.8481909,22.5106154 19.462568,21.6216733 C19.2482268,21.7518091 19.0338855,21.8599366 18.7984929,21.969021 C18.541092,22.0991567 18.284648,22.2072843 18.0061958,22.2943604 C17.5995216,22.4235393 17.1928473,22.5106154 16.7641648,22.5756833 L16.7641648,29.9934214 C17.1717959,29.9714132 17.5995216,29.9283536 18.0061958,29.8623288 C18.284648,29.8192692 18.541092,29.7762096 18.7984929,29.7111417 C19.526679,29.5810059 20.2328569,29.363794 20.9179834,29.1035225 L20.9179834,29.1035225 Z M20.9179834,20.8408588 C21.8605107,23.0311584 22.9092518,25.0702709 24.3225644,27.2385623 C25.9502183,26.0242808 27.298463,24.48466 28.28405,22.705819 C26.2066623,20.9709946 24.2153938,18.9538903 22.5456372,16.7415824 C22.395407,18.1300161 21.7963997,19.3883141 20.9179834,20.3853836 C20.8758806,20.4294002 20.832821,20.4724598 20.7897614,20.5375277 C20.832821,20.6236469 20.8758806,20.7327313 20.9179834,20.8408588 L20.9179834,20.8408588 Z M20.9179834,17.1109383 C21.0041026,16.7415824 21.0471623,16.352132 21.0471623,15.9617248 C21.0471623,15.5713175 21.0041026,15.1809102 20.9179834,14.8115543 C20.6184798,13.5542133 19.8481909,12.4480593 18.7984929,11.7543209 C18.5631003,11.5801687 18.284648,11.4289815 18.0061958,11.2988458 C17.3851803,11.016566 16.6790025,10.864422 15.9508163,10.864422 C15.2015789,10.864422 14.495401,11.0385742 13.8523773,11.3198971 C13.5959333,11.4500329 13.3385324,11.5801687 13.1031398,11.7543209 C12.0543987,12.4700676 11.2831529,13.5762215 10.9836493,14.8555708 C10.9195383,15.2019616 10.8764787,15.5713175 10.8764787,15.9617248 C10.8764787,16.352132 10.9195383,16.7205311 10.9836493,17.0678787 C11.2831529,18.347228 12.0543987,19.4524251 13.1031398,20.1691286 C13.3385324,20.342324 13.5959333,20.4724598 13.8523773,20.6025955 C14.495401,20.8848753 15.2015789,21.0580707 15.9508163,21.0580707 C16.6790025,21.0580707 17.3851803,20.9059267 18.0061958,20.6236469 C18.284648,20.4935112 18.5631003,20.342324 18.7984929,20.1691286 C19.8481909,19.4744333 20.6184798,18.3682794 20.9179834,17.1109383 L20.9179834,17.1109383 Z M20.9179834,11.2117696 C21.1112732,11.5801687 21.3036062,11.9705759 21.5179475,12.3399318 C21.6251181,12.5131272 21.7322887,12.6863226 21.8394594,12.859518 C23.7446086,16.0698523 26.8066264,19.5184499 29.0112792,21.1441899 C29.654303,19.5395012 30.0179176,17.7826685 30.0179176,15.9617248 C30.0179176,9.97547994 26.2286705,4.8360744 20.9179834,2.84097841 C20.2328569,2.57975001 19.526679,2.36349501 18.7984929,2.211351 C18.541092,2.16829137 18.284648,2.10322349 18.0061958,2.08121524 C17.8779738,2.06016387 17.7497518,2.03815561 17.6215298,2.01614736 C17.7277436,2.60175827 17.8569224,3.16536092 18.0061958,3.75192871 C18.220537,4.61886251 18.4989893,5.48675318 18.7984929,6.37569523 C19.398457,8.02344357 20.1256863,9.67214879 20.9179834,11.2117696 L20.9179834,11.2117696 Z M20.9179834,0.801865917 C27.298463,2.88403804 31.9230668,8.89133425 31.9230668,15.9617248 C31.9230668,23.0311584 27.298463,29.0384546 20.9179834,31.1206268 C20.2328569,31.35889 19.526679,31.5330423 18.7984929,31.663178 C18.541092,31.7062377 18.284648,31.7492973 18.0061958,31.7933138 C17.3210693,31.879433 16.6359428,31.9234496 15.9508163,31.9234496 C15.2446385,31.9234496 14.5375037,31.879433 13.8523773,31.7933138 C13.6179415,31.7492973 13.3605406,31.7062377 13.1031398,31.663178 C12.3749537,31.5330423 11.6687758,31.35889 10.9836493,31.1206268 C4.62422104,29.0384546 -0.000382752228,23.0311584 -0.000382752228,15.9617248 C-0.000382752228,8.89133425 4.62422104,2.88403804 10.9836493,0.801865917 C11.6687758,0.563602655 12.3749537,0.389450392 13.1031398,0.259314634 C13.3605406,0.216255009 13.6179415,0.173195383 13.8523773,0.129178877 C14.5375037,0.0430596256 15.2446385,0 15.9508163,0 C16.6359428,0 17.3210693,0.0430596256 18.0061958,0.129178877 C18.284648,0.173195383 18.541092,0.216255009 18.7984929,0.259314634 C19.526679,0.389450392 20.2328569,0.563602655 20.9179834,0.801865917 L20.9179834,0.801865917 Z M18.7984929,13.8795527 L19.9764129,13.8795527 L18.7984929,17.2190658 L18.1774774,19.0409664 L18.0061958,19.0409664 L16.8933437,19.0409664 L15.9508163,16.2870642 L15.0092459,19.0409664 L13.8523773,19.0409664 L13.7452066,19.0409664 L13.1031398,17.1319897 L11.947228,13.8795527 L13.1031398,13.8795527 L13.6179415,13.8795527 L13.8523773,14.6383589 L14.4523414,16.4382513 L15.2876981,13.8795527 L16.6579511,13.8795527 L17.4712996,16.4382513 L18.0061958,14.7684947 L18.3056994,13.8795527 L18.7984929,13.8795527 Z M18.0061958,9.65014054 C18.1353747,9.69415705 18.2635967,9.73721667 18.3707673,9.7802763 C18.2635967,9.52000478 18.1353747,9.2386819 18.0061958,8.93439388 C17.5354106,7.85024819 17.1067281,6.59195024 16.7641648,5.50780456 L16.7641648,9.36786077 C17.1928473,9.41187728 17.5995216,9.52000478 18.0061958,9.65014054 L18.0061958,9.65014054 Z M13.8523773,8.93439388 C13.7241553,9.2386819 13.6179415,9.52000478 13.5107709,9.7802763 C13.6179415,9.73721667 13.7241553,9.69415705 13.8523773,9.65014054 C14.2600084,9.52000478 14.687734,9.41187728 15.1374679,9.36786077 L15.1374679,5.42168531 C14.7949046,6.52688236 14.3241194,7.82919682 13.8523773,8.93439388 L13.8523773,8.93439388 Z M13.8523773,22.2723521 C13.6179415,22.185276 13.3605406,22.0991567 13.1031398,21.969021 C12.8677471,21.8599366 12.6534059,21.7298008 12.4400215,21.5996651 C12.0543987,22.5106154 11.5405538,23.5737097 10.9836493,24.6358471 C10.3195742,25.9151965 9.59234496,27.1955027 8.94932121,28.1275043 C9.59234496,28.5179116 10.2774714,28.843251 10.9836493,29.1035225 C11.6687758,29.363794 12.3749537,29.5810059 13.1031398,29.7111417 C13.3605406,29.7762096 13.6179415,29.8192692 13.8523773,29.8623288 C14.2810597,29.9283536 14.7087854,29.9714132 15.1374679,29.9934214 L15.1374679,22.5756833 C14.687734,22.5106154 14.2600084,22.4235393 13.8523773,22.2723521 L13.8523773,22.2723521 Z M10.9836493,20.3853836 C10.1061898,19.3883141 9.5062257,18.1089648 9.35599545,16.7205311 C7.68623886,18.9328389 5.71697865,20.9499432 3.61853956,22.6847677 C4.60316967,24.4626518 5.95237127,26.0022726 7.55801687,27.2175109 C8.99238084,25.0482627 10.0420788,23.0091502 10.9836493,20.7977992 C11.0267089,20.710723 11.0697686,20.6025955 11.1118713,20.5155194 C11.0697686,20.4724598 11.0267089,20.4294002 10.9836493,20.3853836 L10.9836493,20.3853836 Z" id="Fill-1" fill="#FFFFFF" mask="url(#mask-2)"></path>
                </g>
                <path d="M66.0194008,7.24272472 L65.3151367,7.6130375 C65.3151367,7.6130375 65.2797321,8.38715388 65.2625082,8.47518689 C65.2625082,8.5632199 65.4912027,8.38715388 65.6146403,8.28189702 C65.6500449,8.24649243 65.8261109,8.03502183 66.0194008,7.78910352 C66.354309,7.36616231 66.7590694,6.83796424 66.7590694,6.83796424 L66.0194008,7.24272472 Z M66.0194008,4.5845105 C65.8615155,4.63713893 65.3333174,4.77875725 65.3151367,4.7959811 C65.2979128,4.81320495 65.1916991,5.99303869 65.1916991,5.99303869 L65.5438311,5.8696011 C65.5620118,5.8696011 65.8959632,5.09548472 66.0194008,4.74335267 C66.0548053,4.63713893 66.0548053,4.5845105 66.0366246,4.5845105 L66.0194008,4.5845105 Z M70.2268046,12.6471862 L69.5397644,12.0309551 L69.3818791,15.4814664 C69.7340111,15.3580288 70.015334,14.9006399 70.1741762,14.7599785 L70.2268046,14.70735 L71.0717302,13.4040787 L70.2268046,12.6471862 Z M70.2268046,8.17568327 C70.015334,8.21108785 69.8048203,8.2283117 69.5933497,8.24649243 C69.5933497,8.24649243 69.5053167,9.0560134 69.5933497,9.07323725 C69.6986065,9.10864183 69.927301,9.07323725 70.2268046,9.03878955 C70.4028706,9.00338497 70.6143412,8.95075653 70.8430357,8.91535195 C71.2832008,8.82731894 71.4592668,8.75650978 71.4592668,8.75650978 L71.5118952,7.96516955 C71.088954,8.03502183 70.6497458,8.12305484 70.2268046,8.17568327 L70.2268046,8.17568327 Z M70.2268046,6.2045093 L69.5933497,6.25713773 C69.5933497,6.25713773 69.5397644,7.11928712 69.6105735,7.15469171 C69.6459781,7.15469171 69.8918964,7.13746785 70.2268046,7.10206327 C70.4200945,7.08388254 70.6669697,7.04943484 70.8956641,7.01403026 C71.3186053,6.96140183 71.6525567,6.85518809 71.6525567,6.85518809 L71.7051851,6.08107171 L70.2268046,6.2045093 Z M72.8850188,1.32824592 C73.0610849,1.62679266 73.3251839,2.1023623 73.2543747,2.41908977 C72.0927217,2.73581724 71.5817475,3.37022905 70.2976138,3.56351893 C68.9771186,3.52811435 69.3636983,3.1415346 69.7866396,2.59515579 C70.103367,2.19039531 70.7550027,1.34546977 71.0717302,0.905304707 C71.3186053,0.535948807 71.5999282,0.429735064 71.9166557,0.236445189 C72.2333832,0.30629747 72.7615812,1.18758447 72.8850188,1.32824592 L72.8850188,1.32824592 Z M66.0194008,9.46077388 C65.7553017,9.90093894 65.5438311,10.3238802 65.4385742,10.6578315 C65.2979128,11.0281442 65.3677651,11.5209377 65.3859458,12.2070211 C65.4031697,12.9112852 65.4203935,14.091119 65.4912027,14.8652353 C65.5620118,15.4642426 65.5964595,16.3972011 65.6318641,16.9253992 C65.6500449,17.1368698 65.5964595,17.2421267 65.5620118,17.3129358 C65.4203935,17.7167394 64.5582441,18.4391843 64.3994019,18.2985228 C64.2941451,18.1923091 63.85398,17.8057293 63.3965911,17.488045 C63.2903774,17.4181927 63.1143113,17.0660606 63.1324921,16.8899946 C63.2033012,16.4680103 63.4492195,14.2844088 63.2549728,13.4921117 C62.8502123,13.8442438 61.9354345,15.2001435 61.2837988,15.7981939 C59.9633036,15.9044076 59.5413193,15.5867233 59.5231386,14.9532683 C59.5059147,14.7245739 59.487734,14.179152 59.5939477,14.0375336 C59.9288559,13.5801447 60.4216494,13.1227558 61.3364272,12.312278 C62.3755995,11.3802763 63.2549728,10.2884756 63.2731535,10.1822618 C63.325782,9.65406375 63.325782,9.23207942 63.325782,8.5632199 C62.5870702,8.79191436 61.4952694,9.40814545 60.7383769,9.91816279 C60.4388733,9.90093894 58.6255846,9.16127026 58.59018,8.61584833 C58.7844268,8.29912087 58.9250882,7.99961725 59.0131212,7.99961725 C60.3336164,7.94698882 62.4980803,7.24272472 63.2205251,6.69730279 C63.5200287,6.46860834 63.2549728,5.94041026 63.3085581,5.58827821 C62.5870702,5.67631123 62.340195,5.62368279 62.0760959,5.48302135 C61.7765923,5.30599845 61.178542,4.35581604 61.5124933,4.23237845 C62.1813528,4.10894085 62.8329885,4.12712158 63.501848,4.00368399 C63.9592369,2.3138329 64.5582441,0.377106632 66.0194008,0.183816757 C66.0548053,0.183816757 66.089253,0.183816757 66.1246576,0.165636027 C66.089253,0.27184977 66.0548053,0.359882782 66.0194008,0.447915795 C65.6500449,1.32824592 65.4031697,2.22579989 65.2797321,3.40467675 C65.4557981,3.35204832 65.7198971,3.21138688 66.0194008,3.05350158 C66.6356318,2.6831888 67.3753005,2.15499073 67.6738473,1.82103941 C68.3781114,2.3138329 69.1350039,2.11958615 68.0613839,3.31664374 C67.692028,3.63432809 66.0366246,5.74616351 66.1074338,5.79974882 C66.1954668,5.83419652 66.9523593,5.41221219 67.2336822,5.34140303 C67.2690868,5.25337001 67.7092518,4.42566832 68.1848215,4.42566832 C68.8355003,4.47925363 68.8182764,4.60173435 69.2938461,4.7959811 C69.4871359,4.88401411 69.7866396,4.84860953 70.2268046,4.83138568 C70.3502422,4.83138568 70.4727229,4.81320495 70.6143412,4.81320495 C71.2123916,4.77875725 71.5645237,4.69072424 71.8113988,4.51465821 C71.9692841,4.39122062 72.1281263,4.05631242 72.4974822,4.05631242 C72.8142097,4.10894085 74.4514323,4.76057652 74.205514,5.21796543 C73.9060104,5.78156809 73.5892829,6.82074039 73.4304408,7.75369894 C73.2897793,8.66847677 73.2725555,9.46077388 73.2189702,9.54880689 C73.0429041,9.7602775 72.4802584,10.2358471 72.2687878,10.165038 C71.4066384,9.90093894 70.9310687,10.0243765 70.4200945,10.077005 C70.4028706,10.077005 70.3148376,10.0951857 70.2268046,10.1296334 C69.9100771,10.2004426 69.4172837,10.3765086 69.6105735,10.5697985 C69.839268,10.8166736 70.0335147,10.9927397 70.2268046,11.1334011 C70.4200945,11.2740626 70.6143412,11.3802763 70.8956641,11.5209377 C71.0363256,11.6089708 72.5328868,10.9745589 73.2017463,10.3937324 C73.5012499,10.1478141 73.5892829,9.79568208 73.677316,9.70764906 C73.765349,9.60143532 73.853382,9.3909216 74.0112673,9.44355003 C74.5222415,9.60143532 74.7681598,10.2004426 75.2437294,11.0453681 C75.279134,11.1161773 75.279134,11.678823 74.6447222,11.8376652 C73.8352012,11.8376652 72.9730519,12.1362119 72.1453502,12.2596495 C71.986508,12.3476826 74.2581425,13.9849052 74.4696131,14.1437474 C74.6983075,14.3016327 76.2293164,15.340805 77.8493152,16.0795168 C79.4157287,16.8191855 80.8596615,17.4708211 80.9122899,17.576078 L80.9122899,17.5942587 C80.630967,17.7875486 79.8912984,17.8057293 79.3458764,17.9990192 C78.7114646,18.2277137 78.1842234,18.5798457 77.9201244,18.5970696 C77.3565217,18.6324741 76.9689851,18.3865558 76.7230668,18.2277137 C74.1701094,16.4680103 73.2543747,15.2881765 71.6879612,13.9676814 C71.26502,14.4776987 70.6315651,15.7101609 70.2268046,16.7493332 C70.103367,17.0134322 70.015334,17.2775312 69.9454817,17.488045 C69.751235,18.1042761 69.4871359,18.4918127 69.1350039,18.6152503 C68.2192692,18.737731 67.2690868,17.1014652 67.2872675,17.0134322 C67.3571198,16.6086717 67.4097482,12.1362119 67.4097482,11.3094671 C67.4097482,10.1478141 67.4097482,7.94698882 67.3217152,7.22550087 C67.0757969,7.73551821 66.4767897,8.63402907 66.0194008,9.46077388 L66.0194008,9.46077388 Z" id="Fill-3" fill="#FFFFFF"></path>
                <g transform="translate(80.192142, 0.000000)">
                    <mask id="mask-4" fill="white">
                        <use xlink:href="#path-3"></use>
                    </mask>
                    <g id="Clip-6"></g>
                    <path d="M3.26870402,3.63164882 C3.26870402,4.22587166 1.89845105,3.43357455 0.825787931,5.6123916 C0.643980623,5.95973925 0.825787931,3.7311644 0.858321871,3.61538186 C0.90807966,3.33405897 1.43627773,1.03945936 1.53483643,1.00692542 C2.12905927,0.825118115 2.41038215,1.23753364 2.60845643,1.36958316 C3.4667783,1.96476287 4.04473417,1.46909874 3.51653609,2.92164344 L3.26870402,3.63164882 Z M9.69032953,10.8293045 L10.3505771,11.1594283 C10.3505771,11.1594283 10.4835835,11.3249686 10.3017762,11.5393098 C10.1199689,11.7373841 9.95442856,12.331607 9.93816159,12.331607 L9.69032953,12.2655822 L8.99754799,12.0675079 L9.01381496,10.5164045 L9.65779559,9.78917529 L9.6080378,10.7967705 L9.69032953,10.8293045 Z M11.5227558,9.70688356 C11.8701035,9.27820106 12.3160098,8.74904611 12.2490282,8.63422044 C12.1504695,8.45241313 11.7543209,8.43614616 11.7543209,8.43614616 L11.5227558,8.81602775 L10.8127504,9.9709826 C10.8127504,9.9709826 11.0605825,10.4666467 11.1103403,10.2523055 C11.1428742,10.1853238 11.3246815,9.95471563 11.5227558,9.70688356 L11.5227558,9.70688356 Z M11.5227558,1.55139047 C11.5887806,1.13897494 11.5887806,0.874875905 11.6050475,0.907409844 C11.8366126,1.40307398 12.282519,2.0470546 12.7284253,2.3771784 C13.6030142,3.03742599 14.4785599,3.10345075 13.9991627,4.17707075 C13.6853059,4.85358531 12.6786675,5.29949166 11.5227558,5.72817415 C10.928533,5.9425154 10.2845524,6.15781353 9.69032953,6.4056456 C9.44249746,6.50420429 9.19562227,6.61998684 8.96405717,6.73576939 C8.83200766,6.85155194 8.71622511,8.25433886 8.84827462,8.30409664 C9.09610669,8.10506549 9.37742958,7.87445727 9.69032953,7.64384905 C10.2845524,7.21420968 10.9620238,6.73576939 11.5227558,6.32239699 C11.7705879,6.14154656 11.9849291,5.97600622 12.1667364,5.82768973 C12.2327612,5.77793194 13.0260152,6.12432271 12.5801088,6.70227857 C12.5140841,6.80179415 12.4480593,6.96637761 12.282519,7.18071886 C12.298786,7.46204174 12.6624006,7.5280665 12.7944501,7.6266252 C13.4546977,7.46204174 13.8345793,6.90035285 14.0651875,7.09842713 C14.6106094,7.54433347 14.5771186,8.66675438 14.4288021,9.14615155 C14.3953113,9.24471024 13.9991627,9.19495245 13.2728904,9.78917529 C12.8604749,10.120256 12.0844447,10.9785778 11.5227558,11.7536511 C11.2423898,12.1497997 11.0108247,12.5296812 10.928533,12.7937803 C10.928533,12.8110041 11.192632,12.9095628 11.5227558,13.0588362 C11.6385384,13.0913701 11.7705879,13.1573949 11.8863704,13.2071527 C13.4709647,14.1152323 14.8574846,14.9075295 16.5090605,15.567777 C17.9290712,16.1457329 19.9423479,16.393565 21.527899,17.2681538 C21.7747742,17.4327373 20.7183781,17.5322529 19.8763232,17.8126189 C18.9357096,18.1102087 18.3242629,18.588649 17.8458226,18.5388912 C15.3531487,17.6968363 13.7025298,15.7323605 11.5227558,14.3295736 C10.9620238,13.965959 10.3505771,13.6358352 9.69032953,13.3717361 L9.67406256,13.3554692 C9.45972131,13.2731774 9.277914,13.1076371 8.96405717,13.1076371 C8.71622511,13.1573949 8.86549847,14.7917469 8.91429938,16.0299504 C8.9477902,16.5744154 9.14586448,16.673931 9.11237366,17.0700795 C9.09610669,17.3839364 8.86549847,17.6480354 8.7659829,17.7628611 C8.40332516,18.0929849 8.30380958,18.6211829 7.46175468,18.4240655 C7.27994737,18.3408169 7.11536391,17.5322529 6.81777406,16.7399557 C6.48765026,15.8816339 5.94318522,15.023312 5.72884397,14.759213 C6.28957598,14.9237964 6.81777406,15.1553615 6.88379882,14.9400634 C6.90102267,14.8740386 7.03307218,13.7851085 6.91728964,12.7775133 C6.3230668,13.2234197 5.71162012,14.1975241 5.2494468,14.7754799 C4.35859099,14.8242808 3.08689672,13.7516177 3.51653609,13.3554692 C4.22654147,12.6952216 6.30584295,11.1594283 6.80150709,10.1853238 C6.94982358,9.92122481 6.94982358,7.56060044 6.94982358,7.16445189 C6.55367502,7.08216016 6.53740805,7.24674362 5.8111357,6.98360146 C5.2494468,6.28986305 5.05137253,6.33962084 5.05137253,5.24973387 C5.76137791,4.83636146 6.40535853,5.15021829 6.96609054,4.95214401 C7.14789785,4.88611925 6.70294839,0.726559416 9.64152862,-0.000669816399 C8.51815083,0.462460379 8.61766641,2.44320316 8.61766641,3.81345613 C8.61766641,4.57321931 8.4358591,4.73780276 9.32767179,4.45743676 C9.45972131,4.40767897 9.57454698,4.35792118 9.69032953,4.27562945 C10.3840679,3.89574786 11.0280486,3.23550027 11.2921476,2.54176186 C11.4241971,2.19537109 11.4902219,1.83175647 11.5227558,1.55139047 L11.5227558,1.55139047 Z M2.24484182,8.73277914 C2.24484182,9.01314515 1.75013456,9.82266611 1.65061898,10.384355 C1.2707374,12.611973 1.51856946,12.7612463 1.81615932,14.6262066 C2.32809043,13.8339095 3.38448657,9.21217631 3.31846181,9.69061659 C3.1864123,10.648454 3.05436278,13.5698104 3.08689672,14.3458406 C3.13665451,15.1381377 3.1864123,15.2213863 3.1864123,15.9639256 C3.1864123,16.4595897 3.81316907,16.673931 3.54907003,17.2681538 C3.40075354,17.5982776 2.90508941,18.6211829 2.75677292,18.6211829 L2.55869864,18.6211829 C2.24484182,18.6211829 2.1127923,18.2250344 1.84869326,17.9446684 C1.53483643,17.6145446 1.10615394,17.3667125 1.10615394,17.218396 C1.07266312,15.3362119 1.00663836,14.6596974 0.676514563,13.8836672 C0.181807308,12.6789546 0.132049519,12.3976317 0.082291729,11.5555768 L0,9.87146702 C0,9.69061659 0.0660247593,8.02277376 0.115782549,7.87445727 C0.379881586,6.91661982 0.396148556,6.47167035 0.544465044,6.53673823 L1.07266312,6.80179415 C1.25447043,7.0161354 1.10615394,7.04866934 1.33676216,7.19794271 C1.56832725,7.32999223 2.03050057,7.59409126 2.24484182,7.75867472 C2.34435739,7.84192333 2.24484182,8.58446265 2.24484182,8.73277914 L2.24484182,8.73277914 Z" id="Fill-5" fill="#FFFFFF" mask="url(#mask-4)"></path>
                </g>
                <path d="M47.6599246,2.26292686 C48.522074,1.89357096 49.2971473,1.61129119 50.1592967,1.54143891 C51.5151965,1.50603433 51.7438909,2.22752228 52.00799,2.5270259 L52.0606184,2.7384965 C51.8845524,3.00259554 51.4099396,3.82934035 50.9688177,4.79770349 C50.4942049,5.87132349 50.0358591,6.41770229 50.0540398,6.78705819 L52.6414449,6.20623168 C53.609808,6.6291729 54.2786675,8.2836194 54.1207822,8.42428084 C52.9237247,9.53330542 50.8463369,12.3503618 50.3707673,14.0756175 C50.3181389,14.2870881 51.0922552,14.0574368 51.198469,14.0928413 C53.2050475,13.7761139 53.5571796,13.6699001 54.9829316,13.3885772 C55.9685186,13.5474194 56.5321213,14.7798816 56.5493451,14.920543 C56.5675259,15.3779319 56.110137,15.7826924 55.5819389,16.2400813 C55.1417738,16.082196 54.6135757,16.0649722 54.0327492,16.082196 C53.1878237,16.082196 52.272089,16.2936666 51.6912625,16.5051373 C51.8673285,16.2754859 52.9935769,15.5721787 53.2222714,15.3779319 C53.3284851,15.3071228 51.7266671,15.4133365 50.8989654,15.5013695 L48.4876263,15.8707254 C47.7833622,16.0295676 47.4130495,16.2056336 46.6915615,16.3816997 C44.4907362,16.9443454 42.3961246,18.7231864 38.2595299,18.6169727 C37.9772502,18.3882782 35.671168,16.4515519 35.2491837,16.2400813 C35.3544405,15.90613 35.6185396,15.553998 35.8998624,15.4305604 C39.0336463,16.9098977 43.0123557,16.2754859 47.7125531,14.6382633 C47.9240237,14.2516835 48.7689492,12.4737994 49.4378087,11.0298666 C50.0014114,9.78018061 50.5822379,8.86444591 50.4415765,8.79459362 L49.0148675,9.09314036 C48.6282878,9.37446325 48.257975,10.5370731 47.6072962,11.6460977 C46.9030321,12.8431553 46.4274625,13.5474194 45.9700736,14.0402129 C44.8428682,14.4095688 44.1031996,13.934956 44.1567849,13.7053047 C44.3682555,12.9665929 45.4236948,11.0824951 45.7758268,10.3083787 C44.7203875,10.4136355 43.6812152,9.97347049 43.4879254,9.04051193 C44.1567849,8.54771844 44.7376114,8.81181748 47.2551642,7.45591771 C47.5010825,7.26262783 47.6599246,6.52295915 47.9766521,5.71343819 C48.2407512,5.07902637 48.2235273,4.60441361 48.2053466,4.37571916 C47.5010825,4.44557144 47.0436936,4.49819987 46.4446863,4.23505771 C45.5471323,3.82934035 45.3184379,2.82652951 45.5653131,2.79112493 C45.9872974,2.7384965 46.8676275,2.63228276 47.6599246,2.26292686" id="Fill-7" fill="#FFFFFF"></path>
                <mask id="mask-6" fill="white">
                    <use xlink:href="#path-5"></use>
                </mask>
                <g id="Clip-10"></g>
                <path d="M84.9174092,22.9125052 L89.4989534,22.9125052 L89.4989534,22.4359787 L84.9174092,22.4359787 L84.9174092,22.9125052 Z M90.3017762,21.4867532 L84.6265176,21.4724 L84.6265176,21.9872017 L90.0510735,21.9872017 L90.0510735,26.2701992 L88.0368399,26.2701992 L88.0368399,26.7668202 L90.3008193,26.7668202 C90.5113331,26.7668202 90.6826147,26.5955385 90.6826147,26.3850248 L90.6826147,21.8675917 C90.6826147,21.6580348 90.5122899,21.4877101 90.3017762,21.4867532 L90.3017762,21.4867532 Z M85.6934394,25.4291011 L88.5755637,25.4291011 L88.5755637,23.8636445 L85.6934394,23.8636445 L85.6934394,25.4291011 Z M85.1030441,25.9056277 L89.1669159,25.9056277 L89.1669159,23.387118 L85.1030441,23.387118 L85.1030441,25.9056277 Z" id="Fill-9" fill="#FFFFFF" mask="url(#mask-6)"></path>
                <path d="M79.6194486,21.5542133 C79.5543807,21.427905 79.424245,21.3484839 79.2816698,21.3484839 L76.7870821,21.3484839 L76.7870821,21.8632857 L79.0701992,21.8632857 C79.4749596,22.6546259 80.2825668,23.8105376 81.1495006,24.5406375 L81.5944501,24.0669816 C80.8729621,23.5129478 80.1122421,22.5158782 79.6194486,21.5542133 L79.6194486,21.5542133 Z M76.9755876,22.4067939 L76.3995455,22.2326416 C76.1986006,22.7780635 75.3833383,23.5244304 74.7096944,23.9808624 L74.9871898,24.5329825 C75.7239878,24.0086119 76.723928,23.13498 76.9755876,22.4067939 L76.9755876,22.4067939 Z M79.0768973,24.4430357 C79.3075055,24.8678907 79.5390706,25.2697805 79.7476706,25.6209557 L76.3899767,25.995096 C76.9076491,25.3654686 77.6942049,24.3339513 78.1917828,23.3320974 L77.4884756,23.3320974 C76.9392261,24.4707852 75.866563,25.6965492 75.2799952,26.3319179 C75.1603851,26.4620537 75.2665989,26.6706537 75.4426649,26.6505592 L75.8713474,26.5998445 L80.056743,26.1328868 C80.3418934,26.5979307 80.5342264,26.8907362 80.5342264,26.8907362 L81.1935171,26.7443335 C81.1935171,26.7443335 80.4079182,25.5798098 79.7773339,24.4430357 L79.0768973,24.4430357 Z" id="Fill-11" fill="#FFFFFF" mask="url(#mask-6)"></path>
                <path d="M57.1099815,24.9330542 L57.1099815,25.4813468 L59.1481371,25.4813468 L61.1853358,25.4813468 L61.1853358,24.9330542 C61.1853358,24.8584176 61.1240954,24.7981341 61.0504156,24.7981341 L59.1481371,24.7981341 L57.2449016,24.7981341 C57.1712218,24.7981341 57.1099815,24.8593744 57.1099815,24.9330542 L57.1099815,24.9330542 Z M56.3760541,21.9102685 L56.3760541,21.4729741 L59.7614975,21.4729741 C60.5978111,21.4729741 61.3575743,21.4327851 61.9470127,21.3036062 L61.9470127,21.7409007 C61.3384367,21.8538126 60.5155194,21.9102685 59.7758507,21.9102685 L59.4658214,21.9102685 L59.4658214,22.4489923 L62.3977035,22.4489923 L62.3977035,22.8614078 L60.7155074,22.8614078 C61.0197955,23.3149692 61.5805275,23.6632737 62.3977035,23.9053645 L62.3977035,24.269936 C61.1240954,24.0106214 60.3882543,23.540793 60.0265534,22.8614078 L59.4658214,22.8614078 L59.4658214,24.1331021 L58.8304527,24.1331021 L58.8304527,22.8614078 L58.2687638,22.8614078 C57.8697446,23.55706 57.1339035,24.0259315 55.8976138,24.269936 L55.8976138,23.9053645 C56.6956522,23.6632737 57.2477723,23.3149692 57.5520603,22.8614078 L55.8976138,22.8614078 L55.8976138,22.4489923 L58.8304527,22.4489923 L58.8304527,21.9102685 L56.3760541,21.9102685 Z M59.1481371,25.8698403 L57.1099815,25.8698403 L57.1099815,26.3875127 C57.1099815,26.4621494 57.1702649,26.5233897 57.2449016,26.5233897 L59.1481371,26.5233897 L61.0504156,26.5233897 C61.1250523,26.5233897 61.1853358,26.4621494 61.1853358,26.3875127 L61.1853358,25.8698403 L59.1481371,25.8698403 Z M59.1481371,26.9348484 L56.7855989,26.9348484 C56.6363256,26.9348484 56.5148017,26.8133246 56.5148017,26.6640512 L56.5148017,24.6565158 C56.5148017,24.5072424 56.6363256,24.3857186 56.7855989,24.3857186 L59.1481371,24.3857186 L61.5097183,24.3857186 C61.6589917,24.3857186 61.7805155,24.5072424 61.7805155,24.6565158 L61.7805155,26.6640512 C61.7805155,26.8133246 61.6589917,26.9348484 61.5097183,26.9348484 L59.1481371,26.9348484 Z" id="Fill-12" fill="#FFFFFF" mask="url(#mask-6)"></path>
                <path d="M47.8175229,22.4313857 L47.071156,21.3386281 L46.46258,21.4218767 L47.1965074,22.4954967 L47.8175229,22.4313857 Z M49.3494887,24.3384487 L49.5542611,24.3384487 L49.5542611,26.1211172 C49.5542611,26.1651337 49.5733987,26.2034089 49.6088033,26.2302015 C49.6442079,26.2560373 49.6863106,26.2636924 49.7284134,26.2512529 C50.0738473,26.1469529 50.4556426,26.0254291 50.7694994,25.8857245 L50.7694994,26.3517254 C50.315938,26.579463 49.8662042,26.7593565 49.4260391,26.9038455 C49.1428025,26.995706 48.9361163,26.8091143 48.9428144,26.5813767 L48.9428144,24.8398541 C48.8203337,24.9747742 48.7007236,25.0915137 48.5878117,25.1843311 L47.7916871,25.1843311 C48.5677172,24.7212009 49.5274685,23.2131571 49.8384546,22.2400096 L49.0279768,22.2400096 L48.9035823,22.2400096 L48.7677053,22.2400096 L48.7677053,22.3749297 L48.7677053,22.6198912 L48.7677053,22.8036122 L48.1562586,22.8036122 L48.1562586,21.8228096 L49.9532803,21.8228096 C50.01165,21.6591831 50.059494,21.4792895 50.0987262,21.2821721 L50.7675857,21.2821721 C50.7302673,21.4792895 50.6814664,21.6591831 50.6230967,21.8228096 L52.4947551,21.8228096 C52.6440285,21.8228096 52.7655523,21.9443335 52.7655523,22.0936068 L52.7655523,22.8036122 L52.1541056,22.8036122 L52.1541056,22.3749297 C52.1541056,22.300293 52.0928653,22.2400096 52.0182286,22.2400096 L50.5073142,22.2400096 C50.2613958,22.909826 49.8135757,23.7088212 49.3494887,24.3384487 L49.3494887,24.3384487 Z M50.1666647,23.0504874 L50.797249,23.0504874 C50.8938939,23.5949525 51.0757012,24.0523414 51.229759,24.4216973 C51.5952874,24.1729083 51.9569882,23.686813 52.1244423,23.0504874 L52.7368459,23.0504874 C52.5445129,23.9116799 52.0899946,24.5106872 51.4326177,24.8446385 C51.7225525,25.4072843 52.2526643,25.9354823 52.968411,26.4292327 L52.5205909,26.8148556 C51.1206746,25.9019915 50.4795646,24.7527779 50.1666647,23.0504874 L50.1666647,23.0504874 Z M46.3228754,26.7421326 L46.9955625,26.8100712 C47.151534,26.5287483 47.4979248,25.6426769 47.7543688,24.6207284 L47.1668441,24.6207284 C46.9792955,25.4484301 46.5563543,26.3660786 46.3228754,26.7421326 L46.3228754,26.7421326 Z M47.6433706,23.9518689 L46.9400634,22.829448 L46.3372286,22.9270498 L47.0213982,24.0198074 L47.6433706,23.9518689 Z" id="Fill-13" fill="#FFFFFF" mask="url(#mask-6)"></path>
                <path d="M66.8841337,22.4029663 L66.1377669,21.3102087 L65.5301477,21.3934573 L66.2631182,22.4670773 L66.8841337,22.4029663 Z M69.2466718,22.6488846 L69.8935231,22.6488846 L69.8935231,21.8757251 L69.2466718,21.8757251 L69.2466718,22.6488846 Z M67.8218767,23.2201423 L67.8218767,24.7578494 C68.2888344,24.5186293 68.6543628,23.8526404 68.6620178,23.0842653 L67.9577537,23.0842653 C67.883117,23.0842653 67.8218767,23.1455057 67.8218767,23.2201423 L67.8218767,23.2201423 Z M71.1833981,23.0842653 L70.4532982,23.0842653 L70.4532982,24.352132 C70.4532982,24.6267568 70.5748221,24.7377549 70.8762395,24.7377549 L71.3183183,24.7377549 L71.3183183,23.2201423 C71.3183183,23.1455057 71.2570779,23.0842653 71.1833981,23.0842653 L71.1833981,23.0842653 Z M67.9577537,26.4668381 L71.168088,26.4668381 C71.3116201,26.4668381 71.3183183,26.3960289 71.3183183,26.3041684 L71.3183183,25.1472998 L70.6800789,25.1472998 C70.1375277,25.1472998 69.8935231,24.9348723 69.8935231,24.4545183 L69.8935231,23.0842653 L69.2476287,23.0842653 C69.2466718,24.1464027 68.6620178,24.9205191 67.8218767,25.194187 L67.8218767,26.3309611 C67.8218767,26.4055978 67.883117,26.4668381 67.9577537,26.4668381 L67.9577537,26.4668381 Z M67.2295676,21.876682 L67.2295676,21.4145087 L71.9106274,21.4145087 L71.9106274,21.876682 L70.4532982,21.876682 L70.4532982,22.6488846 L71.6398302,22.6488846 C71.7891035,22.6488846 71.9106274,22.7713653 71.9106274,22.9196818 L71.9106274,26.612284 C71.9106274,26.7969619 71.7871898,26.9290114 71.576676,26.9290114 L67.5003648,26.9290114 C67.3520483,26.9290114 67.2295676,26.8065307 67.2295676,26.6572573 L67.2295676,22.9196818 C67.2295676,22.7704085 67.3510914,22.6488846 67.5003648,22.6488846 L68.6581903,22.6488846 L68.6581903,21.876682 L67.2295676,21.876682 Z M68.131906,25.890796 L71.008289,25.890796 L71.008289,25.4802942 L68.131906,25.4802942 L68.131906,25.890796 Z M65.3894863,26.7137133 L66.0621733,26.7816518 C66.2181448,26.5003289 66.5645356,25.6142575 66.8219365,24.593266 L66.2334549,24.593266 C66.0459063,25.4200108 65.6229651,26.3376592 65.3894863,26.7137133 L65.3894863,26.7137133 Z M66.7109383,23.9234496 L66.0076311,22.8010286 L65.4038395,22.8986305 L66.0880091,23.9913881 L66.7109383,23.9234496 Z" id="Fill-14" fill="#FFFFFF" mask="url(#mask-6)"></path>
                <polygon id="Fill-15" fill="#FFFFFF" mask="url(#mask-6)" points="37.7394653 23.9340709 43.3085103 23.7599187 43.3085103 24.4574846 37.7394653 24.2833323"></polygon>
                <polygon id="Fill-16" fill="#FFFFFF" mask="url(#mask-6)" points="99.2574128 23.9340709 93.6883679 23.7599187 93.6883679 24.4574846 99.2574128 24.2833323"></polygon>
                <path d="M39.6544704,31.6902578 L39.5951438,31.6902578 L39.1597632,30.4539681 L38.7310807,31.6902578 L38.6344357,31.6902578 L37.9579212,29.7851085 C37.9253872,29.6942049 37.839268,29.6721966 37.7397524,29.6721966 L37.7397524,29.6166976 L38.520567,29.6166976 L38.520567,29.6721966 C38.2612523,29.6721966 38.3110101,29.8109443 38.3894743,30.0367681 L38.7617009,31.1132588 L39.0736439,30.2080498 L38.9301118,29.8090306 C38.8841816,29.6827223 38.7741403,29.6788948 38.6870642,29.6721966 L38.6870642,29.6166976 L39.5071108,29.6166976 L39.5071108,29.6721966 C39.2564081,29.6721966 39.2544943,29.7678847 39.3607081,30.0740865 L39.7233658,31.1132588 C39.7855631,30.9314515 40.1472639,29.9219425 40.1472639,29.8004186 C40.1472639,29.6865498 40.018085,29.6721966 39.9271814,29.6721966 L39.9271814,29.6166976 L40.5644638,29.6166976 L40.5644638,29.6721966 C40.362562,29.6721966 40.3281143,29.8319957 40.2515639,30.0568626 L39.6965732,31.6902578 L39.6544704,31.6902578 Z M45.5507685,31.6443275 L45.1125172,31.6443275 L45.1125172,31.5888284 C45.3392979,31.5888284 45.3900126,31.5390706 45.3900126,31.2864542 L45.3900126,29.9410801 C45.3900126,29.7363076 45.3259016,29.6721966 45.1125172,29.6721966 L45.1125172,29.6166976 L45.5507685,29.6166976 L45.9890198,29.6166976 L45.9890198,29.6721966 C45.7746785,29.6721966 45.7105675,29.7363076 45.7105675,29.9410801 L45.7105675,31.2864542 C45.7105675,31.5390706 45.7622391,31.5888284 45.9890198,31.5888284 L45.9890198,31.6443275 L45.5507685,31.6443275 Z M42.8456671,29.6166976 L42.8877699,29.6166976 L42.8877699,29.6721966 C42.6676873,29.6721966 42.6007057,29.71717 42.6007057,29.9870103 L42.6007057,30.8922194 C42.6007057,31.4376413 42.2313498,31.688344 41.7902279,31.6902604 C41.3672866,31.6912146 41.0074996,31.4299862 41.0074996,30.9037019 L41.0074996,29.989881 C41.0074996,29.733437 40.9280785,29.6721966 40.7166079,29.6721966 L40.7166079,29.6166976 L41.6218169,29.6166976 L41.6218169,29.6721966 C41.4036481,29.6721966 41.3328389,29.7363076 41.3318821,29.9908379 L41.3309252,30.9419772 C41.3290114,31.7132229 42.4198553,31.7467137 42.4246397,30.9008313 L42.4284672,29.9745709 C42.430381,29.6951618 42.3681837,29.6721966 42.141403,29.6721966 L42.141403,29.6166976 L42.8456671,29.6166976 Z M44.8532026,31.095078 L44.6809641,31.6443275 L43.0906286,31.6443275 L43.0906286,31.5897853 C43.3221936,31.5897853 43.3767358,31.5591651 43.3767358,31.2864542 L43.3767358,29.9745709 C43.3767358,29.6951618 43.3174092,29.6721966 43.0906286,29.6721966 L43.0906286,29.6166976 L44.0379403,29.6166976 L44.0379403,29.6721966 C43.7221697,29.669326 43.7030321,29.7554452 43.7030321,30.0051911 L43.7030321,31.2835835 C43.7030321,31.4625202 43.7633156,31.5161055 44.1231027,31.5161055 C44.4867173,31.5161055 44.6139824,31.4491239 44.7661264,31.0788111 L44.8532026,31.095078 Z M46.8320316,30.9687698 L46.6980683,31.2778422 C46.6071646,31.4873991 46.620561,31.5696908 46.8789187,31.5897853 L46.8789187,31.6443275 L46.2062317,31.6443275 L46.2062317,31.5897853 C46.3889959,31.5572514 46.4244005,31.5027092 46.5344417,31.239567 L47.2387058,29.5717242 L47.3305664,29.5717242 L48.0262185,31.2577477 C48.1161653,31.4759165 48.1754919,31.5773459 48.3706955,31.5897853 L48.3706955,31.6443275 L47.5391663,31.6443275 L47.5391663,31.5897853 C47.758292,31.5783027 47.7803002,31.4835716 47.7085342,31.3113331 L47.5650021,30.9687698 L46.8320316,30.9687698 Z M47.2033012,30.0913103 L46.8779618,30.8587285 L47.5200287,30.8587285 L47.2033012,30.0913103 Z M49.0108486,29.6166976 L49.0529514,29.6166976 L50.2375695,31.087423 L50.2375695,29.9688296 C50.2375695,29.693248 50.177286,29.6721966 49.9505054,29.6721966 L49.9505054,29.6166976 L50.6959153,29.6166976 L50.6959153,29.6721966 C50.4653071,29.6721966 50.4088511,29.7009031 50.4088511,29.9688296 L50.4088511,31.6768614 L50.31412,31.6768614 L49.0385982,30.0960947 L49.0385982,31.2921954 C49.0385982,31.5668202 49.0931404,31.5897853 49.3256623,31.5897853 L49.3256623,31.6443275 L48.5792955,31.6443275 L48.5792955,31.5897853 C48.8108606,31.5897853 48.8663597,31.560122 48.8663597,31.2921954 L48.8663597,29.8836672 C48.8089468,29.8147718 48.7639734,29.7688416 48.7343101,29.7468333 C48.6654147,29.6961187 48.5802524,29.6721966 48.4730818,29.6721966 L48.4730818,29.6166976 L49.0108486,29.6166976 Z M52.7378985,29.5717141 L52.78957,30.2099635 L52.6929251,30.2099635 C52.5876682,29.8913223 52.3915077,29.6788948 52.0546857,29.6788948 C51.1906226,29.6779379 51.122684,31.0998624 51.7303032,31.4778303 C51.9762215,31.6309312 52.228838,31.616578 52.469015,31.4768734 C52.469015,31.351522 52.4843251,30.7659111 52.4460499,30.6893607 C52.4039471,30.6032414 52.3197416,30.5927157 52.2068297,30.5927157 L52.2068297,30.5372167 L53.0211351,30.5372167 L53.0211351,30.5927157 C52.8259315,30.5927157 52.7981819,30.6596974 52.7981819,30.8893487 L52.7981819,31.5103642 C52.3025178,31.7840321 51.5437115,31.7744632 51.1753125,31.3132468 C50.6509419,30.6568267 51.0949345,29.5678967 52.0077986,29.5717141 C52.533126,29.5736379 52.6249865,29.8425214 52.6412535,29.5717141 L52.7378985,29.5717141 Z M55.3157347,29.6166976 L55.3587943,29.6166976 L55.3587943,29.6721966 C55.1492375,29.6721966 55.0391962,29.8319957 54.9253274,30.0157168 L54.4440165,30.7773937 L54.4440165,31.2921954 C54.4440165,31.5639495 54.5004725,31.5897853 54.7310807,31.5897853 L54.7310807,31.6443275 L53.8316129,31.6443275 L53.8316129,31.5897853 C54.0612643,31.5897853 54.1177202,31.5610789 54.1177202,31.2921954 L54.1177202,30.8185396 L53.5550745,29.9544764 C53.4679983,29.82147 53.3943185,29.6721966 53.2096406,29.6721966 L53.2096406,29.6166976 L54.1052808,29.6166976 L54.1052808,29.6721966 C53.8746726,29.6721966 53.8163029,29.7602297 53.9330423,29.9449076 L54.3578973,30.6185515 L54.752132,29.9917947 C54.8545183,29.8291251 54.8631302,29.6750673 54.6181688,29.6721966 L54.6181688,29.6166976 L55.3157347,29.6166976 Z M56.1807547,29.7276957 L56.1807547,30.5286047 L56.6410143,30.5286047 C56.803684,30.5286047 56.8821482,30.4491837 56.8936308,30.2348424 L56.9902757,30.2348424 L56.9902757,30.9410203 L56.8936308,30.9410203 C56.8620537,30.7132827 56.8122959,30.638646 56.6400574,30.638646 L56.1807547,30.638646 L56.1807547,31.367789 C56.1807547,31.4663477 56.2448657,31.5333293 56.3462951,31.5342862 L56.6467556,31.5371569 C56.9242509,31.5400275 57.0409904,31.4902697 57.2227977,31.1362239 L57.3251839,31.1362239 L57.1529454,31.6443275 L55.5683512,31.6443275 L55.5683512,31.5897853 C55.8276658,31.5897853 55.8544585,31.5333293 55.8544585,31.2864542 L55.8544585,29.9114168 C55.8544585,29.6961187 55.8113988,29.6721966 55.5683512,29.6721966 L55.5683512,29.6166976 L57.1529454,29.6166976 L57.1739968,30.0635608 L57.0744812,30.0635608 C57.0208959,29.7831948 56.9606124,29.7276957 56.6869446,29.7276957 L56.1807547,29.7276957 Z" id="Fill-17" fill="#FFFFFF" mask="url(#mask-6)"></path>
                <path d="M70.622092,31.6444232 L70.1838407,31.6444232 L70.1838407,31.5889241 C70.4106214,31.5889241 70.4622929,31.5391663 70.4622929,31.2865498 L70.4622929,29.9411758 C70.4622929,29.7373602 70.3981819,29.6722923 70.1838407,29.6722923 L70.1838407,29.6167933 L70.622092,29.6167933 L71.0603433,29.6167933 L71.0603433,29.6722923 C70.846002,29.6722923 70.7828479,29.7373602 70.7828479,29.9411758 L70.7828479,31.2865498 C70.7828479,31.5391663 70.8335626,31.5889241 71.0603433,31.5889241 L71.0603433,31.6444232 L70.622092,31.6444232 Z M80.0980803,31.6444232 L79.659829,31.6444232 L79.659829,31.5889241 C79.8866097,31.5889241 79.9382812,31.5391663 79.9382812,31.2865498 L79.9382812,29.9411758 C79.9382812,29.7373602 79.8741702,29.6722923 79.659829,29.6722923 L79.659829,29.6167933 L80.0980803,29.6167933 L80.5363316,29.6167933 L80.5363316,29.6722923 C80.3219903,29.6722923 80.2588362,29.7373602 80.2588362,29.9411758 L80.2588362,31.2865498 C80.2588362,31.5391663 80.3095509,31.5889241 80.5363316,31.5889241 L80.5363316,31.6444232 L80.0980803,31.6444232 Z M58.9366665,29.6177501 L58.9787692,29.6177501 L60.1624305,31.0865618 L60.1624305,29.9689253 C60.1624305,29.6933437 60.1031039,29.6722923 59.8763232,29.6722923 L59.8763232,29.6177501 L60.6217331,29.6177501 L60.6217331,29.6722923 C60.3911249,29.6722923 60.334669,29.7009987 60.334669,29.9689253 L60.334669,31.6769571 L60.2389809,31.6769571 L58.9634591,30.0961904 L58.9634591,31.293248 C58.9634591,31.5669159 59.0189582,31.5889241 59.2505233,31.5889241 L59.2505233,31.6444232 L58.5051133,31.6444232 L58.5051133,31.5889241 C58.7357215,31.5889241 58.7921775,31.5602177 58.7921775,31.293248 L58.7921775,29.8837629 C58.7338078,29.8148675 58.6897913,29.7689373 58.660128,29.746929 C58.5902757,29.6962143 58.5051133,29.6722923 58.3988996,29.6722923 L58.3988996,29.6177501 L58.9366665,29.6177501 Z M61.9154357,29.5718199 C62.810119,29.5718199 63.1842593,30.7516536 62.5871658,31.3860654 C62.0206925,31.9869864 60.8762634,31.6922672 60.8762634,30.6234316 C60.8762634,30.011028 61.296334,29.5718199 61.9154357,29.5718199 L61.9154357,29.5718199 Z M61.8666348,29.6789905 C61.1374918,29.7000419 61.1317505,30.9564261 61.4647449,31.3803241 C61.6876981,31.6635608 62.0800191,31.6415525 62.3106274,31.3602297 C62.5708989,31.0444591 62.5527181,30.2110161 62.2924466,29.8818492 C62.1891035,29.7517134 62.0474852,29.6837749 61.8666348,29.6789905 L61.8666348,29.6789905 Z M63.5995455,29.6177501 L63.6416482,29.6177501 L64.8253095,31.0865618 L64.8253095,29.9689253 C64.8253095,29.6933437 64.7659829,29.6722923 64.5392022,29.6722923 L64.5392022,29.6177501 L65.2846122,29.6177501 L65.2846122,29.6722923 C65.0540039,29.6722923 64.997548,29.7009987 64.997548,29.9689253 L64.997548,31.6769571 L64.9018599,31.6769571 L63.6263381,30.0961904 L63.6263381,31.293248 C63.6263381,31.5669159 63.6818372,31.5889241 63.9134023,31.5889241 L63.9134023,31.6444232 L63.1679923,31.6444232 L63.1679923,31.5889241 C63.3986006,31.5889241 63.4550565,31.5602177 63.4550565,31.293248 L63.4550565,29.8837629 C63.3966868,29.8148675 63.3526703,29.7689373 63.323007,29.746929 C63.2531547,29.6962143 63.1679923,29.6722923 63.0617786,29.6722923 L63.0617786,29.6177501 L63.5995455,29.6177501 Z M67.3256384,29.5718098 L67.37731,30.2100592 L67.280665,30.2100592 C67.176365,29.891418 66.9802045,29.6789905 66.6433826,29.6789905 C65.7783625,29.6780336 65.7113809,31.0999581 66.3190001,31.477926 C66.5649184,31.6310269 66.8175348,31.6157168 67.0577119,31.4769691 C67.0577119,31.3516177 67.0720651,30.7660068 67.0347467,30.6894564 C66.992644,30.6033371 66.9084385,30.5928114 66.7945697,30.5928114 L66.7945697,30.5373124 L67.6098319,30.5373124 L67.6098319,30.5928114 C67.4146283,30.5928114 67.3868788,30.6597931 67.3868788,30.8894444 L67.3868788,31.5104599 C66.8902578,31.7841277 66.1324083,31.7745589 65.7640093,31.3133425 C65.2396388,30.6569224 65.6836314,29.5679923 66.5964954,29.5718098 C67.120866,29.5737336 67.2136834,29.8426171 67.2299504,29.5718098 L67.3256384,29.5718098 Z M69.0384546,30.5220023 C69.1676335,30.7181628 69.5982298,31.4004186 69.7321931,31.5104599 C69.7896059,31.5583039 69.8623288,31.5841397 69.9503618,31.5889241 L69.9503618,31.6444232 L69.0499372,31.6444232 L69.0499372,31.5889241 C69.1752886,31.5870103 69.2891573,31.5477782 69.2336583,31.4061599 L68.8327253,30.7880151 L68.3590694,31.413815 C68.2786915,31.5200287 68.4040428,31.5841397 68.5370492,31.5889241 L68.5370492,31.6444232 L67.785898,31.6444232 L67.785898,31.5889241 C67.9906704,31.5688296 68.1466419,31.42147 68.2777346,31.2511453 L68.7427785,30.6511811 L68.3322768,30.0311225 C68.2452006,29.899073 68.1495126,29.7957299 68.0834878,29.7517134 C68.0088511,29.7009987 67.9227319,29.675163 67.8251301,29.6722923 L67.8251301,29.6177501 L68.7944501,29.6177501 L68.7944501,29.6722923 C68.5667125,29.6809043 68.5447043,29.7765923 68.6604868,29.9507446 L68.947551,30.3851684 L69.3532683,29.8483584 C69.3858023,29.7785061 69.3590096,29.7115244 69.2929849,29.6866455 C69.2709766,29.6780336 69.2240895,29.6732492 69.1532803,29.6722923 L69.1532803,29.6177501 L69.9044316,29.6177501 L69.9044316,29.6722923 C69.6853059,29.6837749 69.5771784,29.8215657 69.4336463,30.0072005 L69.0384546,30.5220023 Z M71.9023982,30.9688655 L71.767478,31.2808086 C71.6775312,31.4884516 71.6918845,31.5707434 71.9502422,31.5889241 L71.9502422,31.6444232 L71.2765983,31.6444232 L71.2765983,31.5889241 C71.4593625,31.557347 71.4947671,31.5028049 71.6048083,31.2396627 L72.3090724,29.5718199 L72.400933,29.5718199 L73.097542,31.2578434 C73.1874888,31.4760122 73.2468154,31.5774415 73.4410621,31.5889241 L73.4410621,31.6444232 L72.6095329,31.6444232 L72.6095329,31.5889241 C72.8477962,31.5774415 72.8477962,31.469314 72.7607201,31.2645416 L72.6353687,30.9688655 L71.9023982,30.9688655 Z M72.2736678,30.091406 L71.9492853,30.8588242 L72.5903953,30.8588242 L72.2736678,30.091406 Z M74.0812152,29.6177501 L74.123318,29.6177501 L75.3079361,31.0865618 L75.3079361,29.9689253 C75.3079361,29.6933437 75.2486095,29.6722923 75.020872,29.6722923 L75.020872,29.6177501 L75.7662819,29.6177501 L75.7662819,29.6722923 C75.5366306,29.6722923 75.4801746,29.7009987 75.4801746,29.9689253 L75.4801746,31.6769571 L75.3844866,31.6769571 L74.1089648,30.0961904 L74.1089648,31.293248 C74.1089648,31.5669159 74.163507,31.5889241 74.3960289,31.5889241 L74.3960289,31.6444232 L73.650619,31.6444232 L73.650619,31.5889241 C73.8812272,31.5889241 73.9367263,31.5602177 73.9367263,31.293248 L73.9367263,29.8837629 C73.8793134,29.8148675 73.8352969,29.7689373 73.8056336,29.746929 C73.7357814,29.6962143 73.650619,29.6722923 73.5434484,29.6722923 L73.5434484,29.6177501 L74.0812152,29.6177501 Z M77.8082651,29.5718098 L77.8599366,30.2100592 L77.7632917,30.2100592 C77.6589917,29.891418 77.4618743,29.6789905 77.1250523,29.6789905 C76.2609892,29.6780336 76.1930507,31.0999581 76.8016267,31.477926 C77.0465881,31.6310269 77.3001615,31.6157168 77.5393816,31.4769691 C77.5393816,31.3516177 77.5546917,30.7660068 77.5173734,30.6894564 C77.4752706,30.6033371 77.3901082,30.5928114 77.2771963,30.5928114 L77.2771963,30.5373124 L78.0924586,30.5373124 L78.0924586,30.5928114 C77.8972549,30.5928114 77.8685485,30.6597931 77.8685485,30.8894444 L77.8685485,31.5104599 C77.3728844,31.7841277 76.6140781,31.7745589 76.246636,31.3133425 C75.7213085,30.6569224 76.1653011,29.5679923 77.0791221,29.5718098 C77.6034926,29.5737336 77.69631,29.8426171 77.7116201,29.5718098 L77.8082651,29.5718098 Z M79.403385,29.6177501 L79.4454877,29.6177501 L79.4454877,29.6722923 C79.2129657,29.6722923 79.1584235,29.7000419 79.1584235,29.9756235 L79.1584235,30.9669517 C79.1584235,31.7975241 78.5345374,31.7487232 78.3900484,31.6205012 C78.2934035,31.5362957 78.289576,31.4080737 78.3469888,31.3516177 C78.4024879,31.2980324 78.5230548,31.2846361 78.586209,31.3363076 C78.674242,31.4109443 78.6962502,31.6798278 78.7986364,31.533425 C78.8206447,31.5008911 78.8321273,31.4425214 78.8321273,31.3592728 C78.8321273,31.1640691 78.850308,29.867496 78.8129897,29.7727648 C78.7747144,29.6722923 78.6254411,29.6722923 78.54602,29.6722923 L78.54602,29.6177501 L79.403385,29.6177501 Z M82.8759046,29.6177501 L82.9180073,29.6177501 L82.9180073,29.6722923 C82.6979248,29.6722923 82.6309431,29.7172657 82.6309431,29.987106 C82.6309431,30.3067041 82.6615633,31.029149 82.5716165,31.2817654 C82.4615753,31.5927516 82.1572872,31.6893966 81.8204653,31.6903596 C81.4654626,31.6913103 81.197536,31.5812691 81.0846241,31.2654985 C80.9697985,30.9468572 81.109503,29.8722804 80.9860654,29.730662 C80.9296095,29.6646373 80.8348783,29.6722923 80.7468453,29.6722923 L80.7468453,29.6177501 L81.6530112,29.6177501 L81.6530112,29.6722923 C81.4338855,29.6722923 81.3630764,29.6943006 81.3630764,29.9756235 C81.3630764,30.2636445 81.3468094,30.8626518 81.3841277,31.1286646 C81.4750314,31.7707314 82.2558459,31.6032773 82.4022487,31.253059 C82.4883679,31.0492435 82.4587046,30.2579032 82.4587046,29.9756235 C82.4587046,29.6952575 82.3984211,29.6722923 82.1725973,29.6722923 L82.1725973,29.6177501 L82.8759046,29.6177501 Z" id="Fill-18" fill="#FFFFFF" mask="url(#mask-6)"></path>
                <path d="M85.5114407,29.5713414 L85.5564141,30.2612523 L85.5114407,30.2612523 L85.5104838,30.2583817 L85.5104838,30.2612523 L85.4655104,30.2612523 C85.3640811,29.9186891 85.1612224,29.6794689 84.8205729,29.6794689 C84.1239639,29.6794689 84.0292327,30.6889779 84.2263501,31.1463668 C84.3928473,31.5348604 84.85215,31.6678668 85.1832307,31.4803182 C85.2827462,31.4238622 85.4033132,31.2965971 85.5210095,31.129143 L85.6023444,31.1750733 C85.3908738,31.5559117 85.1392142,31.6965732 84.7287124,31.6965732 C83.4120447,31.6965732 83.4158723,29.5713414 84.8177023,29.5713414 C85.2282041,29.5713414 85.3468572,29.8603194 85.4109682,29.5713414 L85.5114407,29.5713414 Z M86.9381496,29.5713414 C87.8357036,29.5713414 88.2108008,30.7559596 87.6117936,31.3913283 C87.0453203,31.9922493 85.8913223,31.7023145 85.8913223,30.6267807 C85.8913223,30.0105496 86.3133066,29.5713414 86.9381496,29.5713414 L86.9381496,29.5713414 Z M86.887435,29.6794689 C86.158292,29.7024341 86.1525507,30.960732 86.486502,31.385587 C86.7104121,31.6707374 87.1008193,31.6458585 87.3314275,31.3654925 C87.5916991,31.0497219 87.5735183,30.2124514 87.3122899,29.8823276 C87.2089468,29.7521919 87.0673285,29.6842533 86.887435,29.6794689 L86.887435,29.6794689 Z M88.6059925,30.0421267 L88.6059925,31.2985109 C88.6059925,31.5769631 88.6643622,31.5951438 88.8940135,31.5951438 L88.8940135,31.6506429 L88.1419054,31.6506429 L88.1419054,31.5951438 C88.3725136,31.5951438 88.4289696,31.5673943 88.4289696,31.2985109 L88.4289696,29.9703606 C88.4289696,29.7474075 88.3763411,29.6727708 88.1419054,29.6727708 L88.1419054,29.6172717 L88.7629209,29.6172717 L89.4643143,31.1559356 L90.1580527,29.6172717 L90.7742838,29.6172717 L90.7742838,29.6727708 C90.5436756,29.6727708 90.4862628,29.7014772 90.4862628,29.9703606 L90.4862628,31.2985109 C90.4862628,31.5750493 90.5475031,31.5951438 90.7742838,31.5951438 L90.7742838,31.6506429 L89.8681179,31.6506429 L89.8681179,31.5951438 C90.099683,31.5951438 90.156139,31.5683512 90.156139,31.2985109 L90.156139,30.0421267 L89.4298666,31.6506429 L89.3351355,31.6506429 L88.6059925,30.0421267 Z M91.5799773,30.7071587 C91.5799773,30.8554752 91.5550984,31.4535255 91.6211231,31.5291191 C91.686191,31.6037558 91.7732671,31.5951438 91.8679983,31.5951438 L91.8679983,31.6506429 L90.9618324,31.6506429 L90.9618324,31.5951438 C91.1962682,31.5951438 91.2488966,31.5654805 91.2488966,31.2918127 L91.2488966,29.9761019 C91.2488966,29.694779 91.1905269,29.6727708 90.9618324,29.6727708 L90.9618324,29.6172717 C91.2163627,29.6172717 91.9311524,29.5885653 92.1684588,29.6737276 C92.7234496,29.8737157 92.6698642,30.7396926 91.9167992,30.7396926 L91.5799773,30.7071587 Z M91.5799773,30.6114706 C91.7598708,30.6468752 91.8976616,30.6746247 92.0402368,30.520567 C92.2727588,30.2689074 92.1340111,29.7397524 91.7512589,29.7407093 C91.7043717,29.742623 91.6479158,29.7521919 91.5799773,29.7684588 L91.5799773,30.6114706 Z M93.0985467,30.9731715 C92.9090844,31.4238622 92.7856468,31.5683512 93.1463908,31.5951438 L93.1463908,31.6506429 L92.4670056,31.6506429 L92.4670056,31.5951438 C92.6507266,31.5626099 92.6861312,31.5090246 92.7971294,31.2449255 L93.5023503,29.5713414 L93.5989953,29.5713414 L94.2965612,31.2631063 C94.3874649,31.4822319 94.4467915,31.5836613 94.6419951,31.5951438 L94.6419951,31.6506429 L93.8037677,31.6506429 L93.8037677,31.5951438 C94.1386759,31.57792 93.9961007,31.3760182 93.8305604,30.9731715 L93.0985467,30.9731715 Z M93.4698164,30.0976257 L93.1454339,30.8621733 L93.7846301,30.8621733 L93.4698164,30.0976257 Z M95.2524849,29.6172717 L95.299372,29.6172717 L96.4830333,31.0870402 L96.4830333,29.9703606 C96.4830333,29.6928653 96.4227498,29.6727708 96.1950123,29.6727708 L96.1950123,29.6172717 L96.9471204,29.6172717 L96.9471204,29.6727708 C96.7165122,29.6727708 96.6590993,29.7005203 96.6590993,29.9703606 L96.6590993,31.6831768 L96.5595838,31.6831768 L95.284062,30.103367 L95.284062,31.2985109 C95.284062,31.5731356 95.339561,31.5951438 95.572083,31.5951438 L95.572083,31.6506429 L94.8199749,31.6506429 L94.8199749,31.5951438 C95.0505831,31.5951438 95.1079959,31.5673943 95.1079959,31.2985109 L95.1079959,29.8842414 C95.0496262,29.815346 95.0056097,29.7694157 94.9759464,29.7474075 C94.9060941,29.6966928 94.8209318,29.6727708 94.7128043,29.6727708 L94.7128043,29.6172717 L95.2524849,29.6172717 Z M99.2110998,29.6172717 L99.2570301,29.6172717 L99.2570301,29.6727708 C99.0474732,29.6727708 98.9364751,29.8325698 98.8226063,30.0172478 L98.3403385,30.7808385 C98.3393816,30.7817953 98.3164165,31.4592668 98.3814844,31.5329466 C98.4427247,31.6008851 98.5355421,31.5951438 98.6274027,31.5951438 L98.6274027,31.6506429 L97.7212368,31.6506429 L97.7212368,31.5951438 C97.951845,31.5951438 98.0092578,31.5673943 98.0092578,31.2985109 L98.0092578,30.8229412 L97.3279589,29.7770707 C97.2963818,29.7435799 97.1939956,29.6727708 97.0973506,29.6727708 L97.0973506,29.6172717 L97.999689,29.6172717 L97.999689,29.6727708 C97.7336762,29.6727708 97.7212368,29.782812 97.8590276,30.0000239 L98.2513486,30.6181688 C98.3403385,30.4784642 98.7135219,29.9339992 98.7135219,29.8182166 C98.7135219,29.7053047 98.6140063,29.6727708 98.5106632,29.6727708 L98.5106632,29.6172717 L99.2110998,29.6172717 Z" id="Fill-19" fill="#FFFFFF" mask="url(#mask-6)"></path>
            </g>
        </g>
    </g>
</svg>